<mxfile host="app.diagrams.net" modified="2024-01-05T20:03:57.769Z" agent="Mozilla/5.0 (Windows NT 10.0; Win64; x64) AppleWebKit/537.36 (KHTML, like Gecko) Chrome/120.0.0.0 Safari/537.36" etag="YWxaQpRnUxxNYAy4bQZv" version="22.1.17" type="github">
  <diagram name="Page-1" id="edf60f1a-56cd-e834-aa8a-f176f3a09ee4">
    <mxGraphModel dx="819" dy="422" grid="1" gridSize="10" guides="1" tooltips="1" connect="1" arrows="1" fold="1" page="1" pageScale="1" pageWidth="1100" pageHeight="850" background="none" math="0" shadow="0">
      <root>
        <mxCell id="0" />
        <mxCell id="1" parent="0" />
        <mxCell id="UF4x-xSXFysQibBx9FlB-15" value="NEW STELLAR WEB STORE" style="rounded=1;whiteSpace=wrap;html=1;fillColor=#cce5ff;strokeColor=#36393d;" parent="1" vertex="1">
          <mxGeometry x="200" y="50" width="200" height="30" as="geometry" />
        </mxCell>
        <mxCell id="UF4x-xSXFysQibBx9FlB-16" value="FRONT" style="rounded=1;whiteSpace=wrap;html=1;verticalAlign=top;" parent="1" vertex="1">
          <mxGeometry x="200" y="100" width="200" height="90" as="geometry" />
        </mxCell>
        <mxCell id="EMMBerv7BqWXjt2nW1ao-1" value="" style="shape=image;verticalLabelPosition=bottom;labelBackgroundColor=default;verticalAlign=top;aspect=fixed;imageAspect=0;image=https://seeklogo.com/images/N/next-js-icon-logo-EE302D5DBD-seeklogo.com.png;" vertex="1" parent="1">
          <mxGeometry x="282.5" y="127.5" width="35" height="35" as="geometry" />
        </mxCell>
        <mxCell id="EMMBerv7BqWXjt2nW1ao-6" value="NEXT" style="rounded=0;whiteSpace=wrap;html=1;fillColor=none;fontColor=#333333;strokeColor=#666666;strokeWidth=0;" vertex="1" parent="1">
          <mxGeometry x="273.75" y="170" width="52.5" height="12.5" as="geometry" />
        </mxCell>
        <mxCell id="EMMBerv7BqWXjt2nW1ao-9" value="" style="rounded=1;whiteSpace=wrap;html=1;fillColor=#cce5ff;strokeColor=#36393d;" vertex="1" parent="1">
          <mxGeometry x="130" y="240" width="360" height="70" as="geometry" />
        </mxCell>
        <mxCell id="EMMBerv7BqWXjt2nW1ao-12" style="edgeStyle=orthogonalEdgeStyle;rounded=0;orthogonalLoop=1;jettySize=auto;html=1;exitX=0.25;exitY=1;exitDx=0;exitDy=0;entryX=0.324;entryY=-0.02;entryDx=0;entryDy=0;entryPerimeter=0;" edge="1" parent="1" source="UF4x-xSXFysQibBx9FlB-16" target="EMMBerv7BqWXjt2nW1ao-9">
          <mxGeometry relative="1" as="geometry" />
        </mxCell>
        <mxCell id="EMMBerv7BqWXjt2nW1ao-14" value="API GATEWAY" style="rounded=0;whiteSpace=wrap;html=1;strokeWidth=0;strokeColor=none;fillColor=none;" vertex="1" parent="1">
          <mxGeometry x="240" y="260" width="120" height="30" as="geometry" />
        </mxCell>
        <mxCell id="EMMBerv7BqWXjt2nW1ao-15" style="edgeStyle=orthogonalEdgeStyle;rounded=0;orthogonalLoop=1;jettySize=auto;html=1;exitX=0.75;exitY=1;exitDx=0;exitDy=0;entryX=0.626;entryY=0.02;entryDx=0;entryDy=0;entryPerimeter=0;" edge="1" parent="1" source="UF4x-xSXFysQibBx9FlB-16" target="EMMBerv7BqWXjt2nW1ao-9">
          <mxGeometry relative="1" as="geometry" />
        </mxCell>
      </root>
    </mxGraphModel>
  </diagram>
</mxfile>
